<svg xmlns="http://www.w3.org/2000/svg" data-name="Layer 1" viewBox="0 0 100 125" x="0px" y="0px"><path d="M54.86,30.48c.85-1.51.66-3.28-.52-4.08s-3.13-.27-4.18,1.29a3.94,3.94,0,0,0-.6,1.39,2.16,2.16,0,0,0-2.38-1.77,2.18,2.18,0,0,0-1.31,2.74c0,.09.05.16.07.23C35.46,32.64,27.5,43.79,27.5,54.84,27.5,67.26,37.57,74,50,74s22.5-6.73,22.5-19.15C72.5,44.08,65,33.21,54.86,30.48ZM58.4,69.41A14.7,14.7,0,0,1,56,69.22a36,36,0,0,0-12,0,14.7,14.7,0,0,1-2.41.19C35.2,69.41,30,65.51,30,57.76s5.19-14,11.59-14A10.73,10.73,0,0,1,50,48.11a10.73,10.73,0,0,1,8.4-4.39C64.8,43.72,70,50,70,57.76S64.8,69.41,58.4,69.41Z"/><circle cx="39.8" cy="56.27" r="3.32"/><circle cx="60.2" cy="56.27" r="3.32"/><path d="M51.94,56.15h0c-1.29-.06-2.59-.06-3.88,0a2.47,2.47,0,0,0-1.84.94,1.46,1.46,0,0,0,.18,2l2.53,2.39a1.57,1.57,0,0,0,2.14,0l2.53-2.39a1.46,1.46,0,0,0,.18-2A2.47,2.47,0,0,0,51.94,56.15Z"/></svg>